<mxfile host="Electron" agent="Mozilla/5.0 (Windows NT 10.0; Win64; x64) AppleWebKit/537.36 (KHTML, like Gecko) draw.io/27.0.9 Chrome/134.0.6998.205 Electron/35.4.0 Safari/537.36" version="27.0.9">
  <diagram name="Page-1" id="H_NYY8ckZuVlUuJCRgEM">
    <mxGraphModel dx="1042" dy="626" grid="1" gridSize="10" guides="1" tooltips="1" connect="1" arrows="1" fold="1" page="1" pageScale="1" pageWidth="850" pageHeight="1100" math="0" shadow="0">
      <root>
        <mxCell id="0" />
        <mxCell id="1" parent="0" />
        <mxCell id="t2YXPCtMV_4GNbSTEb5H-1" value="" style="rounded=0;whiteSpace=wrap;html=1;" vertex="1" parent="1">
          <mxGeometry x="55.360000000000014" y="160" width="120" height="340" as="geometry" />
        </mxCell>
        <mxCell id="t2YXPCtMV_4GNbSTEb5H-2" value="&lt;font style=&quot;font-size: 16px;&quot;&gt;Sources&lt;/font&gt;" style="rounded=0;whiteSpace=wrap;html=1;strokeColor=none;" vertex="1" parent="1">
          <mxGeometry x="71" y="140" width="90" height="40" as="geometry" />
        </mxCell>
        <mxCell id="t2YXPCtMV_4GNbSTEb5H-16" style="edgeStyle=orthogonalEdgeStyle;rounded=0;orthogonalLoop=1;jettySize=auto;html=1;exitX=1;exitY=0.5;exitDx=0;exitDy=0;exitPerimeter=0;" edge="1" parent="1" source="t2YXPCtMV_4GNbSTEb5H-3" target="t2YXPCtMV_4GNbSTEb5H-9">
          <mxGeometry relative="1" as="geometry" />
        </mxCell>
        <mxCell id="t2YXPCtMV_4GNbSTEb5H-17" style="edgeStyle=orthogonalEdgeStyle;rounded=0;orthogonalLoop=1;jettySize=auto;html=1;exitX=1;exitY=0.5;exitDx=0;exitDy=0;exitPerimeter=0;entryX=0;entryY=0.5;entryDx=0;entryDy=0;" edge="1" parent="1" source="t2YXPCtMV_4GNbSTEb5H-3" target="t2YXPCtMV_4GNbSTEb5H-10">
          <mxGeometry relative="1" as="geometry" />
        </mxCell>
        <mxCell id="t2YXPCtMV_4GNbSTEb5H-18" style="edgeStyle=orthogonalEdgeStyle;rounded=0;orthogonalLoop=1;jettySize=auto;html=1;exitX=1;exitY=0.5;exitDx=0;exitDy=0;exitPerimeter=0;entryX=0;entryY=0.5;entryDx=0;entryDy=0;" edge="1" parent="1" source="t2YXPCtMV_4GNbSTEb5H-3" target="t2YXPCtMV_4GNbSTEb5H-11">
          <mxGeometry relative="1" as="geometry" />
        </mxCell>
        <mxCell id="t2YXPCtMV_4GNbSTEb5H-3" value="" style="image;aspect=fixed;html=1;align=center;fontSize=12;image=img/lib/azure2/general/Folder_Blank.svg;points=[[0,0,0,0,0],[0,0.25,0,0,0],[0,0.5,0,0,0],[0,0.75,0,0,0],[0,1,0,0,0],[0.25,0,0,0,0],[0.25,1,0,0,0],[0.5,0,0,0,0],[0.5,1,0,0,0],[0.75,0,0,0,0],[0.75,1,0,0,0],[1,0,0,0,0],[1,0.25,0,0,0],[1,0.5,0,0,0],[1,0.75,0,0,0],[1,1,0,0,0]];" vertex="1" parent="1">
          <mxGeometry x="90.72" y="225" width="49.29" height="40" as="geometry" />
        </mxCell>
        <mxCell id="t2YXPCtMV_4GNbSTEb5H-4" value="&lt;b&gt;CRM&lt;/b&gt;" style="text;strokeColor=none;align=center;fillColor=none;html=1;verticalAlign=middle;whiteSpace=wrap;rounded=0;" vertex="1" parent="1">
          <mxGeometry x="86" y="270" width="60" height="30" as="geometry" />
        </mxCell>
        <mxCell id="t2YXPCtMV_4GNbSTEb5H-19" style="edgeStyle=orthogonalEdgeStyle;rounded=0;orthogonalLoop=1;jettySize=auto;html=1;exitX=1;exitY=0.5;exitDx=0;exitDy=0;" edge="1" parent="1" source="t2YXPCtMV_4GNbSTEb5H-5" target="t2YXPCtMV_4GNbSTEb5H-12">
          <mxGeometry relative="1" as="geometry" />
        </mxCell>
        <mxCell id="t2YXPCtMV_4GNbSTEb5H-21" style="edgeStyle=orthogonalEdgeStyle;rounded=0;orthogonalLoop=1;jettySize=auto;html=1;exitX=1;exitY=0.5;exitDx=0;exitDy=0;entryX=0;entryY=0.75;entryDx=0;entryDy=0;" edge="1" parent="1" source="t2YXPCtMV_4GNbSTEb5H-5" target="t2YXPCtMV_4GNbSTEb5H-14">
          <mxGeometry relative="1" as="geometry" />
        </mxCell>
        <mxCell id="t2YXPCtMV_4GNbSTEb5H-5" value="" style="image;aspect=fixed;html=1;align=center;fontSize=12;image=img/lib/azure2/general/Folder_Blank.svg;" vertex="1" parent="1">
          <mxGeometry x="91.35" y="370" width="49.29" height="40" as="geometry" />
        </mxCell>
        <mxCell id="t2YXPCtMV_4GNbSTEb5H-6" value="&lt;b&gt;ERP&lt;/b&gt;" style="text;strokeColor=none;align=center;fillColor=none;html=1;verticalAlign=middle;whiteSpace=wrap;rounded=0;" vertex="1" parent="1">
          <mxGeometry x="84.64999999999999" y="410" width="60" height="30" as="geometry" />
        </mxCell>
        <mxCell id="t2YXPCtMV_4GNbSTEb5H-7" value="" style="rounded=0;whiteSpace=wrap;html=1;fillColor=none;strokeColor=#b46504;" vertex="1" parent="1">
          <mxGeometry x="230" y="210" width="180" height="290" as="geometry" />
        </mxCell>
        <mxCell id="t2YXPCtMV_4GNbSTEb5H-8" value="&lt;font style=&quot;font-size: 17px; color: rgb(0, 0, 0);&quot;&gt;&lt;b&gt;Bronze Layer&lt;/b&gt;&lt;/font&gt;" style="rounded=1;whiteSpace=wrap;html=1;fillColor=#fad7ac;strokeColor=#b46504;" vertex="1" parent="1">
          <mxGeometry x="230" y="160" width="180" height="40" as="geometry" />
        </mxCell>
        <mxCell id="t2YXPCtMV_4GNbSTEb5H-31" style="edgeStyle=orthogonalEdgeStyle;rounded=0;orthogonalLoop=1;jettySize=auto;html=1;exitX=1;exitY=0.5;exitDx=0;exitDy=0;" edge="1" parent="1" source="t2YXPCtMV_4GNbSTEb5H-9" target="t2YXPCtMV_4GNbSTEb5H-25">
          <mxGeometry relative="1" as="geometry" />
        </mxCell>
        <mxCell id="t2YXPCtMV_4GNbSTEb5H-9" value="&lt;font color=&quot;#000000&quot;&gt;&lt;span style=&quot;font-size: 17px;&quot;&gt;crm_sales_details&lt;/span&gt;&lt;/font&gt;" style="rounded=1;whiteSpace=wrap;html=1;fillColor=#fad7ac;strokeColor=#b46504;" vertex="1" parent="1">
          <mxGeometry x="235" y="230" width="170" height="30" as="geometry" />
        </mxCell>
        <mxCell id="t2YXPCtMV_4GNbSTEb5H-32" style="edgeStyle=orthogonalEdgeStyle;rounded=0;orthogonalLoop=1;jettySize=auto;html=1;exitX=1;exitY=0.5;exitDx=0;exitDy=0;entryX=0;entryY=0.5;entryDx=0;entryDy=0;" edge="1" parent="1" source="t2YXPCtMV_4GNbSTEb5H-10" target="t2YXPCtMV_4GNbSTEb5H-26">
          <mxGeometry relative="1" as="geometry" />
        </mxCell>
        <mxCell id="t2YXPCtMV_4GNbSTEb5H-10" value="&lt;font color=&quot;#000000&quot;&gt;&lt;span style=&quot;font-size: 17px;&quot;&gt;crm_cust_info&lt;/span&gt;&lt;/font&gt;" style="rounded=1;whiteSpace=wrap;html=1;fillColor=#fad7ac;strokeColor=#b46504;" vertex="1" parent="1">
          <mxGeometry x="235" y="270" width="170" height="30" as="geometry" />
        </mxCell>
        <mxCell id="t2YXPCtMV_4GNbSTEb5H-33" style="edgeStyle=orthogonalEdgeStyle;rounded=0;orthogonalLoop=1;jettySize=auto;html=1;exitX=1;exitY=0.5;exitDx=0;exitDy=0;entryX=0;entryY=0.5;entryDx=0;entryDy=0;" edge="1" parent="1" source="t2YXPCtMV_4GNbSTEb5H-11" target="t2YXPCtMV_4GNbSTEb5H-27">
          <mxGeometry relative="1" as="geometry" />
        </mxCell>
        <mxCell id="t2YXPCtMV_4GNbSTEb5H-11" value="&lt;font color=&quot;#000000&quot;&gt;&lt;span style=&quot;font-size: 17px;&quot;&gt;crm_prd_info&lt;/span&gt;&lt;/font&gt;" style="rounded=1;whiteSpace=wrap;html=1;fillColor=#fad7ac;strokeColor=#b46504;" vertex="1" parent="1">
          <mxGeometry x="235" y="310" width="170" height="30" as="geometry" />
        </mxCell>
        <mxCell id="t2YXPCtMV_4GNbSTEb5H-12" value="&lt;font color=&quot;#000000&quot;&gt;&lt;span style=&quot;font-size: 17px;&quot;&gt;erp_cust_az12&lt;/span&gt;&lt;/font&gt;" style="rounded=1;whiteSpace=wrap;html=1;fillColor=#fad7ac;strokeColor=#b46504;" vertex="1" parent="1">
          <mxGeometry x="235" y="370" width="170" height="30" as="geometry" />
        </mxCell>
        <mxCell id="t2YXPCtMV_4GNbSTEb5H-35" style="edgeStyle=orthogonalEdgeStyle;rounded=0;orthogonalLoop=1;jettySize=auto;html=1;exitX=1;exitY=0.5;exitDx=0;exitDy=0;entryX=0;entryY=0.5;entryDx=0;entryDy=0;" edge="1" parent="1" source="t2YXPCtMV_4GNbSTEb5H-13" target="t2YXPCtMV_4GNbSTEb5H-29">
          <mxGeometry relative="1" as="geometry" />
        </mxCell>
        <mxCell id="t2YXPCtMV_4GNbSTEb5H-13" value="&lt;font style=&quot;font-size: 17px; color: rgb(0, 0, 0);&quot;&gt;erp_loc_a101&lt;/font&gt;" style="rounded=1;whiteSpace=wrap;html=1;fillColor=#fad7ac;strokeColor=#b46504;" vertex="1" parent="1">
          <mxGeometry x="235" y="410" width="170" height="30" as="geometry" />
        </mxCell>
        <mxCell id="t2YXPCtMV_4GNbSTEb5H-38" style="edgeStyle=orthogonalEdgeStyle;rounded=0;orthogonalLoop=1;jettySize=auto;html=1;exitX=1;exitY=0.5;exitDx=0;exitDy=0;entryX=0;entryY=0.5;entryDx=0;entryDy=0;" edge="1" parent="1" source="t2YXPCtMV_4GNbSTEb5H-14" target="t2YXPCtMV_4GNbSTEb5H-30">
          <mxGeometry relative="1" as="geometry" />
        </mxCell>
        <mxCell id="t2YXPCtMV_4GNbSTEb5H-14" value="&lt;font style=&quot;font-size: 17px; color: rgb(0, 0, 0);&quot;&gt;erp_px_cat_g1v2&lt;/font&gt;" style="rounded=1;whiteSpace=wrap;html=1;fillColor=#fad7ac;strokeColor=#b46504;" vertex="1" parent="1">
          <mxGeometry x="235" y="450" width="170" height="30" as="geometry" />
        </mxCell>
        <mxCell id="t2YXPCtMV_4GNbSTEb5H-20" style="edgeStyle=orthogonalEdgeStyle;rounded=0;orthogonalLoop=1;jettySize=auto;html=1;exitX=1;exitY=0.5;exitDx=0;exitDy=0;entryX=0.04;entryY=0.749;entryDx=0;entryDy=0;entryPerimeter=0;" edge="1" parent="1" source="t2YXPCtMV_4GNbSTEb5H-5" target="t2YXPCtMV_4GNbSTEb5H-7">
          <mxGeometry relative="1" as="geometry" />
        </mxCell>
        <mxCell id="t2YXPCtMV_4GNbSTEb5H-23" value="" style="rounded=0;whiteSpace=wrap;html=1;fillColor=none;strokeColor=#666666;fontColor=#333333;" vertex="1" parent="1">
          <mxGeometry x="490" y="210" width="180" height="290" as="geometry" />
        </mxCell>
        <mxCell id="t2YXPCtMV_4GNbSTEb5H-24" value="&lt;font style=&quot;font-size: 17px; color: rgb(0, 0, 0);&quot;&gt;&lt;b&gt;Silver Layer&lt;/b&gt;&lt;/font&gt;" style="rounded=1;whiteSpace=wrap;html=1;fillColor=#eeeeee;strokeColor=#36393d;" vertex="1" parent="1">
          <mxGeometry x="490" y="160" width="180" height="40" as="geometry" />
        </mxCell>
        <mxCell id="t2YXPCtMV_4GNbSTEb5H-48" style="edgeStyle=orthogonalEdgeStyle;rounded=0;orthogonalLoop=1;jettySize=auto;html=1;exitX=1;exitY=0.5;exitDx=0;exitDy=0;entryX=0;entryY=0.5;entryDx=0;entryDy=0;jumpStyle=gap;" edge="1" parent="1" source="t2YXPCtMV_4GNbSTEb5H-25" target="t2YXPCtMV_4GNbSTEb5H-42">
          <mxGeometry relative="1" as="geometry" />
        </mxCell>
        <mxCell id="t2YXPCtMV_4GNbSTEb5H-25" value="&lt;font color=&quot;#000000&quot;&gt;&lt;span style=&quot;font-size: 17px;&quot;&gt;crm_sales_details&lt;/span&gt;&lt;/font&gt;" style="rounded=1;whiteSpace=wrap;html=1;fillColor=#eeeeee;strokeColor=#36393d;" vertex="1" parent="1">
          <mxGeometry x="495" y="230" width="170" height="30" as="geometry" />
        </mxCell>
        <mxCell id="t2YXPCtMV_4GNbSTEb5H-26" value="&lt;font color=&quot;#000000&quot;&gt;&lt;span style=&quot;font-size: 17px;&quot;&gt;crm_cust_info&lt;/span&gt;&lt;/font&gt;" style="rounded=1;whiteSpace=wrap;html=1;fillColor=#eeeeee;strokeColor=#36393d;" vertex="1" parent="1">
          <mxGeometry x="495" y="270" width="170" height="30" as="geometry" />
        </mxCell>
        <mxCell id="t2YXPCtMV_4GNbSTEb5H-58" style="edgeStyle=orthogonalEdgeStyle;rounded=0;orthogonalLoop=1;jettySize=auto;html=1;exitX=1;exitY=0.5;exitDx=0;exitDy=0;entryX=0;entryY=0.5;entryDx=0;entryDy=0;" edge="1" parent="1" source="t2YXPCtMV_4GNbSTEb5H-27" target="t2YXPCtMV_4GNbSTEb5H-47">
          <mxGeometry relative="1" as="geometry" />
        </mxCell>
        <mxCell id="t2YXPCtMV_4GNbSTEb5H-27" value="&lt;font color=&quot;#000000&quot;&gt;&lt;span style=&quot;font-size: 17px;&quot;&gt;crm_prd_info&lt;/span&gt;&lt;/font&gt;" style="rounded=1;whiteSpace=wrap;html=1;fillColor=#eeeeee;strokeColor=#36393d;" vertex="1" parent="1">
          <mxGeometry x="495" y="310" width="170" height="30" as="geometry" />
        </mxCell>
        <mxCell id="t2YXPCtMV_4GNbSTEb5H-28" value="&lt;font color=&quot;#000000&quot;&gt;&lt;span style=&quot;font-size: 17px;&quot;&gt;erp_cust_az12&lt;/span&gt;&lt;/font&gt;" style="rounded=1;whiteSpace=wrap;html=1;fillColor=#eeeeee;strokeColor=#36393d;" vertex="1" parent="1">
          <mxGeometry x="495" y="370" width="170" height="30" as="geometry" />
        </mxCell>
        <mxCell id="t2YXPCtMV_4GNbSTEb5H-53" style="edgeStyle=orthogonalEdgeStyle;rounded=0;orthogonalLoop=1;jettySize=auto;html=1;exitX=1;exitY=0.5;exitDx=0;exitDy=0;entryX=0;entryY=0.5;entryDx=0;entryDy=0;jumpStyle=gap;" edge="1" parent="1" source="t2YXPCtMV_4GNbSTEb5H-29" target="t2YXPCtMV_4GNbSTEb5H-43">
          <mxGeometry relative="1" as="geometry">
            <Array as="points">
              <mxPoint x="750" y="425" />
              <mxPoint x="750" y="350" />
            </Array>
          </mxGeometry>
        </mxCell>
        <mxCell id="t2YXPCtMV_4GNbSTEb5H-29" value="&lt;font style=&quot;font-size: 17px; color: rgb(0, 0, 0);&quot;&gt;erp_loc_a101&lt;/font&gt;" style="rounded=1;whiteSpace=wrap;html=1;fillColor=#eeeeee;strokeColor=#36393d;" vertex="1" parent="1">
          <mxGeometry x="495" y="410" width="170" height="30" as="geometry" />
        </mxCell>
        <mxCell id="t2YXPCtMV_4GNbSTEb5H-37" style="edgeStyle=orthogonalEdgeStyle;rounded=0;orthogonalLoop=1;jettySize=auto;html=1;exitX=0;exitY=0.5;exitDx=0;exitDy=0;fillColor=#eeeeee;strokeColor=#36393d;" edge="1" parent="1" source="t2YXPCtMV_4GNbSTEb5H-30">
          <mxGeometry relative="1" as="geometry">
            <mxPoint x="495" y="465" as="targetPoint" />
          </mxGeometry>
        </mxCell>
        <mxCell id="t2YXPCtMV_4GNbSTEb5H-59" style="edgeStyle=orthogonalEdgeStyle;rounded=0;orthogonalLoop=1;jettySize=auto;html=1;exitX=1;exitY=0.5;exitDx=0;exitDy=0;entryX=0;entryY=0.5;entryDx=0;entryDy=0;" edge="1" parent="1" source="t2YXPCtMV_4GNbSTEb5H-30" target="t2YXPCtMV_4GNbSTEb5H-47">
          <mxGeometry relative="1" as="geometry" />
        </mxCell>
        <mxCell id="t2YXPCtMV_4GNbSTEb5H-30" value="&lt;font style=&quot;font-size: 17px; color: rgb(0, 0, 0);&quot;&gt;erp_px_cat_g1v2&lt;/font&gt;" style="rounded=1;whiteSpace=wrap;html=1;fillColor=#eeeeee;strokeColor=#36393d;" vertex="1" parent="1">
          <mxGeometry x="495" y="450" width="170" height="30" as="geometry" />
        </mxCell>
        <mxCell id="t2YXPCtMV_4GNbSTEb5H-34" style="edgeStyle=orthogonalEdgeStyle;rounded=0;orthogonalLoop=1;jettySize=auto;html=1;exitX=1;exitY=0.5;exitDx=0;exitDy=0;entryX=0.049;entryY=0.606;entryDx=0;entryDy=0;entryPerimeter=0;" edge="1" parent="1" source="t2YXPCtMV_4GNbSTEb5H-12" target="t2YXPCtMV_4GNbSTEb5H-23">
          <mxGeometry relative="1" as="geometry" />
        </mxCell>
        <mxCell id="t2YXPCtMV_4GNbSTEb5H-39" value="" style="rounded=0;whiteSpace=wrap;html=1;fillColor=none;strokeColor=#d6b656;" vertex="1" parent="1">
          <mxGeometry x="790" y="205" width="180" height="290" as="geometry" />
        </mxCell>
        <mxCell id="t2YXPCtMV_4GNbSTEb5H-40" value="&lt;font style=&quot;font-size: 17px; color: rgb(0, 0, 0);&quot;&gt;&lt;b&gt;Gold Layer&lt;/b&gt;&lt;/font&gt;" style="rounded=1;whiteSpace=wrap;html=1;fillColor=#fff2cc;strokeColor=#d6b656;" vertex="1" parent="1">
          <mxGeometry x="790" y="155" width="180" height="40" as="geometry" />
        </mxCell>
        <mxCell id="t2YXPCtMV_4GNbSTEb5H-42" value="&lt;font color=&quot;#000000&quot;&gt;&lt;span style=&quot;font-size: 17px;&quot;&gt;fact_sales&lt;/span&gt;&lt;/font&gt;" style="rounded=1;whiteSpace=wrap;html=1;fillColor=#fff2cc;strokeColor=#d6b656;" vertex="1" parent="1">
          <mxGeometry x="795" y="255" width="170" height="30" as="geometry" />
        </mxCell>
        <mxCell id="t2YXPCtMV_4GNbSTEb5H-43" value="&lt;font color=&quot;#000000&quot;&gt;&lt;span style=&quot;font-size: 17px;&quot;&gt;dim_customer&lt;/span&gt;&lt;/font&gt;" style="rounded=1;whiteSpace=wrap;html=1;fillColor=#fff2cc;strokeColor=#d6b656;" vertex="1" parent="1">
          <mxGeometry x="795" y="335" width="170" height="30" as="geometry" />
        </mxCell>
        <mxCell id="t2YXPCtMV_4GNbSTEb5H-47" value="&lt;font color=&quot;#000000&quot;&gt;&lt;span style=&quot;font-size: 17px;&quot;&gt;dim_products&lt;/span&gt;&lt;/font&gt;" style="rounded=1;whiteSpace=wrap;html=1;fillColor=#fff2cc;strokeColor=#d6b656;" vertex="1" parent="1">
          <mxGeometry x="795" y="420" width="170" height="30" as="geometry" />
        </mxCell>
        <mxCell id="t2YXPCtMV_4GNbSTEb5H-49" style="edgeStyle=orthogonalEdgeStyle;rounded=0;orthogonalLoop=1;jettySize=auto;html=1;exitX=1;exitY=0.5;exitDx=0;exitDy=0;entryX=0;entryY=0.5;entryDx=0;entryDy=0;jumpStyle=gap;" edge="1" parent="1" source="t2YXPCtMV_4GNbSTEb5H-26" target="t2YXPCtMV_4GNbSTEb5H-43">
          <mxGeometry relative="1" as="geometry">
            <Array as="points">
              <mxPoint x="750" y="285" />
              <mxPoint x="750" y="350" />
            </Array>
          </mxGeometry>
        </mxCell>
        <mxCell id="t2YXPCtMV_4GNbSTEb5H-52" style="edgeStyle=orthogonalEdgeStyle;rounded=0;orthogonalLoop=1;jettySize=auto;html=1;exitX=1;exitY=0.5;exitDx=0;exitDy=0;entryX=0;entryY=0.5;entryDx=0;entryDy=0;jumpStyle=gap;" edge="1" parent="1" source="t2YXPCtMV_4GNbSTEb5H-28" target="t2YXPCtMV_4GNbSTEb5H-43">
          <mxGeometry relative="1" as="geometry">
            <Array as="points">
              <mxPoint x="750" y="385" />
              <mxPoint x="750" y="350" />
            </Array>
          </mxGeometry>
        </mxCell>
      </root>
    </mxGraphModel>
  </diagram>
</mxfile>
